<svg xmlns="http://www.w3.org/2000/svg" viewBox="0 0 966 250">
  <path fill="#ec4484" fill-rule="evenodd" d="M188.5 3.9q-6.6 3-11.4 11.1c-2 3.5-2 3.7-2.1 106.6v103.2l3.3 4.8a25 25 0 0 0 18.4 11c5.2.6 6.5.3 12.3-2.8A8065 8065 0 0 0 364.6 140c5.7-4.3 8.5-9.2 9.2-16.3a23 23 0 0 0-5.7-17.7c-2.2-2.4-28-19.3-68.6-44.8C222.9 13 210 5.2 205.2 3.4c-5.2-1.9-12-1.7-16.7.5m438.7 1.4c.3.6 5.4 16.8 11.3 36l11 34.7h14.3l5.7-16.2c8.6-24 9.3-25.7 10-23.3L687 57l6.6 18.5 7.2.3 7.2.3 7-21.8 11.4-35.8 4.5-14-8-.3c-4.5-.2-8.6 0-9.2.1-.7.3-3.8 9.7-7.1 21A245 245 0 0 1 700 46c-.3 0-3.7-9.4-7.6-20.8l-7-20.7-6.6-.3-6.6-.3-5.6 16.8c-10 30-8.5 29-14 9.6l-6.3-21.5C645 4 645 4 636 4c-6.9 0-9 .3-8.7 1.3M740 40v36h56V63h-39V46h33V33h-33V17h39V4h-56zm71-.1V76h20.3c23 0 28.3-1 34.3-6.2 4.9-4.3 6.4-7.8 6.4-14.5q0-9.9-6.8-13.8c-3-1.8-3-1.8.9-5.6 8.8-8.8 5.7-22.5-6.7-28.9-4.7-2.4-5.7-2.5-26.6-2.8L811 3.8zm17-15V33h9.5c10.6 0 13.9-1 15.5-5 2.9-7-1.5-10.1-15-10.8l-10-.5zm-634.1-3.2c-1.2 1.3-1.4 18.2-1.4 100.5 0 94.9 0 99 1.8 100.3 2.4 1.7 6.4.4 15.7-5 10.3-6.1 122.2-77 135.2-85.6 13-8.8 14-10.4 9-15A5081 5081 0 0 0 204 22q-7.3-3.7-10.1-.3m634.1 33v8.5l11.1-.4c10.7-.3 11.2-.4 13.5-3.1q4.1-4.8.9-9.4c-2-3-7.4-4.3-17.2-4.3H828zM635 211v36h16v-29h30v-13h-30v-17h35v-13h-51zm80-35a26 26 0 0 0-12.7 8.3c-5.5 6-6.7 11.7-6.1 30.7.4 13.6.6 15 3 19.1 4.9 8.3 13.9 12.9 25 12.9 10 0 15.8-2.1 21.7-8 6.5-6.2 7.4-10.5 7-31-.4-14.7-.5-15.7-3-20-3-5-8.5-9.4-14.6-11.6-4-1.4-16.2-1.7-20.3-.5m52 35.1v36h16l.2-21.1.3-21.1 14.5 20.9 14.6 20.8 7.2.3 7.2.3V175h-16l-.2 20.9-.3 20.9-14.5-20.9-14.5-20.9H767zm71-29.5v6.5h20v59h16v-59h20v-13h-56zm80-5.6a23 23 0 0 0-16 15.3 24 24 0 0 0 2.7 17.2c3.2 4.4 10.4 7.6 20 8.8 10.2 1.3 14 2.9 14.9 6.3q1.5 6.6-4.1 9c-6.5 2.8-19 1.5-24.5-2.5-2.5-1.8-2.5-1.7-7.9 3l-5.4 4.8 4.3 3c6 4.4 12.8 6.2 23.5 6.2 12 0 18.3-2 24-7.3 3.3-3.2 4.5-5.3 5.3-9.2 2.1-10-1.7-19.3-9.4-23-2-1-8-2.4-13.3-3.2a37 37 0 0 1-12.1-3.2 7 7 0 0 1-1.1-10.2c1.8-2.2 2.6-2.4 10.3-2.4 6.4 0 9 .4 11.4 1.9 3.2 1.9 3.2 1.9 8.3-2.4 6-5 5.8-5.5-2.7-9.7-4.9-2.4-7-2.8-15.7-3-5.5-.1-11.1.1-12.5.6m-198.5 13a17 17 0 0 0-4.5 3.6c-2.4 2.5-2.5 3.3-2.8 17-.4 16 .7 20.3 5.9 23a16 16 0 0 0 12.9.2c4.8-2.4 6-6.8 6-21.5 0-15-1.2-19.2-6-21.7a15 15 0 0 0-11.5-.5"/>
  <path fill="#fba48c" fill-rule="evenodd" d="M2 34.3V39h119v35H2v9h119v24.8h-6.4c-7.1 0-12 1.8-17.6 6.2-3.8 3-3.8 3-49.4 3H2v9h54v34H2v9h54v25h-5.4q-10 0-17.6 6c-3.8 3-3.8 3-17.4 3H2v4.5c0 4.5 0 4.5 6.9 4.5 3.7 0 9 .3 11.5.6 3.8.6 4.6 1 4.6 2.8 0 3.4 3.5 8.1 7.3 10 8.5 4 20.5 1 28.4-7L66 213h50.6c42.2 0 50.5-.2 50.5-1.4l-.6-4.5c-.7-3.1-.7-3.1-34.8-3.1-18.7 0-41.2-.3-49.8-.7l-15.8-.6V169h9c8.9 0 8.9 0 9.2 4 .4 5.4 2 5.5 3.6.3l1.4-4.3h39c39 0 39 0 38.4-3.1l-.6-4c0-.5-16.8-.9-37.6-.9H91l-1.5-3.7c-3-7.8-5-10.7-13.7-19.4a44 44 0 0 1-8.5-10.1c.3-1 3.8-1.4 11.6-1.6C90 126 90 126 90 129q0 3 3.3 6.5c7.9 8.5 26.6 5.5 34.4-5.5 2.8-4 2.8-4 21-4H167v-9h-36V83h9c9 0 9 0 9 4 0 5 1.8 5 3.5 0 1.1-3.4 1.3-3.5 7.6-4 6.4-.5 6.4-.5 6.7-4.7s.3-4.3-5.7-4.3c-5.8 0-6-.1-6.6-2.7a33 33 0 0 0-10.4-16.5c-3-2.8-7.3-7.1-9.5-9.7-3.8-4.6-3.8-4.6-1-5.2 1.6-.4 9.8-.7 18.3-.8l15.3-.1-.7-3.7-.9-4-81.9-.9L2 29.7zm297.3-3.6c-17 .2-30.3.7-30.3 1.2s2.3 2.3 5 4c5 3.1 5 3.1 80 3.1h75v35l-46.2.2-46.3.3 6.5 4.2 6.5 4.3H429v25h-5.7c-7.8 0-12 1.3-17.9 5.5-4.7 3.4-5.2 3.5-13.6 3.5-8.8 0-8.8 0-8.8 4.5s0 4.5 7.5 4.5 7.5 0 7.5 3c0 4 5.1 9.7 9.8 11q13.7 3.8 25.4-8l6-6H473v33.8l-61.3.4c-61.3.3-61.3.3-68 3.7a23 23 0 0 0-6.7 4.3c0 .4 30.6.8 68 .8h68v24.7l-7.2.5c-7.7.5-13.8 2.9-17.2 6.7-2 2.1-2 2.1-84.4 2.1s-82.5 0-87.7 3c-10.2 5.9-11.7 5.6 36.8 6.3 24.3.4 63 .7 86 .7h41.6l1 3.8c2 7 7.1 10.2 16.3 10.2 8 0 15.2-3.3 20.4-9.3l3.5-4.2 57.2-.5 57.2-.5.3-4.2.3-4.3H483v-35h17.9l.3 5.3.3 5.2 2.4-5.2 2.3-5.3H597v-9h-45.5c-45 0-45.5 0-45.5-2 0-4.4-3.3-9.4-12.5-19a52 52 0 0 1-9.2-11.3q.3-1.2 11.5-1.5c11-.3 11.2-.2 11.2 2 0 3.7 3.6 8.6 8.2 10.9 8.6 4.4 22.7 0 29.3-8.9l3-4 24.8-.1 24.7-.1v-9h-49V83h19v4.8l.2 4.7 2.1-4.7 2.2-4.8H597v-9h-12.5c-9.3 0-12.5-.3-12.5-1.2 0-5.3-2.7-9.6-12.6-19.9-5.7-6-10.4-11.3-10.4-11.8q-.2-2 29.3-2L597 39v-9l-133.7.2zM440 40.3c0 2.1 3.3 6.2 11.7 14.3 7 6.9 8.3 8.7 9.8 13.7L463 74h75V39h-49c-38.5 0-49 .3-49 1.3M131.6 63.6a24 24 0 0 0-.6 6c0 4.4 0 4.4 7.5 4.4 4.1 0 7.5-.3 7.5-.8 0-1.8-3.6-5.6-7.8-8.3-5.3-3.4-5.8-3.4-6.6-1.3m308-.9c-.3.4-.6 3-.6 6 0 5.3 0 5.3 6 5.3 7.6 0 9.3-.6 8-3-1.8-3.3-12-9.6-13.4-8.3m109 0c-.3.3-.6 3-.6 6.1v5.5l7-.5c3.9-.3 7.4-.8 7.7-1.2 1-.9-2.6-4.5-7.6-7.8-4.8-3-5.4-3.2-6.4-2.1M439 100v17h35.7c35.6 0 35.6 0 39-2.5a29 29 0 0 1 18-6.5h6.3V83h-75.6l-2.4 4.8-2.4 4.7-.6-4.5c-.5-4.5-.5-4.5-9.2-4.8L439 83zm206.7 23.3c-8 18.9-15 35-15.3 36-.6 1.6.2 1.8 8.4 1.8h9l2.4-6 2.3-6h29.3l2.2 6 2.2 6h9c4.8 0 8.8-.3 8.8-.7 0-.5-6.8-16.7-15.2-36L673.7 89h-13.4zm66.5-7.5c.3 25.3.4 27 2.5 30.8q3.6 6.9 12.7 11.7c3.6 2 5.6 2.2 16.1 2.2s12.5-.3 16.1-2.2a29 29 0 0 0 12.7-11.7c2-3.9 2.2-5.6 2.5-30.8l.4-26.8H757v25.8c0 28.2 0 28.6-6 31.7-3.7 2-11.3 2-15 0-6-3-6-3.5-6-31.7V89h-18.1zM792 125v36.2l20.3-.4c16.4-.4 21.1-.8 25.1-2.3a26 26 0 0 0 14.7-14.7c1.7-6.1 1.7-31.1 0-37-1.7-6-6.8-11.3-14-14.7-5.3-2.4-6.6-2.6-25.9-3l-20.2-.3zm77 0v36h17V89h-17zm51.4-34.2a29 29 0 0 0-15.6 12.6c-1.8 3.4-2.2 6.3-2.6 18.1-.7 22.7 1.9 29.4 14 36 4.7 2.6 6.5 3 15.4 3.3 9.4.4 10.6.2 16.3-2.3 7.4-3.4 13.5-9.6 15.1-15.6 1.8-6.8 1-35.5-1.3-39.6-2.4-4.5-9.2-10-15.4-12.3a45 45 0 0 0-25.9-.2M809 125v23.2l9.4-.4c15.5-.6 17.6-3.4 17.6-22.8 0-19-2-21.7-18-22.7l-9-.6zm117.3-21.5c-5.1 2.2-6.4 5.3-7 16.3-.8 14 .2 20.6 3.7 24.5 2.7 3 3.2 3.2 9.8 3.2 11.8 0 14.2-4 14.2-23.5 0-9-.4-12.3-1.8-15-3-6.2-11.6-8.7-18.9-5.5m-263.6 20.1a82 82 0 0 0-4.4 12c.3.3 4.5.3 9.3.2l9-.3-4.6-11.8-4.6-11.7zM66 154v6h7.5c4.1 0 7.5-.4 7.5-.8 0-2.1-11.7-11.2-14.5-11.2-.3 0-.5 2.7-.5 6m417-.1v5.8l7.8.6c4.2.2 7.8.3 8 .2.8-.8-7.6-8.8-11-10.6-2-1-4-1.9-4.3-1.9s-.5 2.6-.5 5.9"/>
</svg>