<svg xmlns="http://www.w3.org/2000/svg" viewBox="0 0 965 246">
  <path fill="#ec4484" fill-rule="evenodd" d="M186.5 1.9q-6.6 3-11.4 11.1c-2 3.5-2 3.7-2.1 106.6 0 103.2 0 103.2 3.3 108a25 25 0 0 0 18.4 11c5.2.6 6.5.3 12.3-2.8A8065 8065 0 0 0 362.6 138c5.7-4.3 8.5-9.2 9.2-16.3a23 23 0 0 0-5.7-17.7c-2.2-2.4-28-19.3-68.6-44.8C220.9 11 208 3.2 203.2 1.4c-5.2-1.9-12-1.7-16.7.5m440 7.4 11.5 36 9.4 28.7h17.4l4.7-12.2L676 45c2.1-5.3 1.2-6.7 9.4 14.5l5.3 14 9 .3 8.8.3 11.3-35.3C726 19.4 731 3.2 731 2.8c0-.5-5-.8-11-.8-9.5 0-11 .2-11.4 1.8l-10 34c-.2.1-3.2-7.9-6.7-17.8l-6.4-18h-15.2l-6.4 18a77 77 0 0 1-7 16.7 283 283 0 0 1-5.4-18L646.7 2h-22.5zM739 38v36h58V58h-37V46h31V30h-31V19l18.3-.2 18.2-.3.3-8.2.3-8.3H739zm71 0v36.2l23.3-.4c22.5-.3 23.4-.4 28.1-2.8 2.7-1.4 6.3-4.2 8-6.3 2.7-3.4 3.1-4.8 3.4-11.3.4-7.4.4-7.4-4-11.9s-4.5-4.4-2-6.7a17.4 17.4 0 0 0 3.3-20.6c-2.4-4.7-4.5-6.6-10.6-9.4-4.6-2.1-6.6-2.3-27.2-2.6L810 1.8zM191.9 19.7c-1.2 1.3-1.4 18.2-1.4 100.5 0 94.9 0 99 1.8 100.3 2.4 1.7 6.4.4 15.7-5 10.3-6.1 122.2-77 135.2-85.6 13-8.8 14-10.4 9-15A5081 5081 0 0 0 202 20q-7.3-3.7-10.1-.3M832 24c0 5 0 5 8 5 7 0 8-.2 9.4-2.2 2-2.9 2-3.4-.4-5.8-1.6-1.6-3.3-2-9.5-2-7.5 0-7.5 0-7.5 5m0 27.5V57h8.4c7.6 0 8.6-.2 10-2.2 2.1-3 2-4.4-.4-6.8-1.7-1.7-3.3-2-10-2-8 0-8 0-8 5.5M632 210v36h20v-27h28v-17h-28v-11h33v-17h-53zm79.7-34.6a26 26 0 0 0-10.5 7c-6 5.6-6.6 7.5-7 25.1-.5 19.2.3 23 6.1 29.2a27 27 0 0 0 22.3 9.3c4.7 0 10-.6 12.6-1.6 6.1-2 12-7.3 14.9-13.1 2-4.3 2.3-6.2 2.3-19.8.1-22-2.2-27.8-13.5-34-4.6-2.5-6.7-3-14.4-3.2q-9-.3-12.8 1M765 210v36h19l.2-17.1.3-17.2 11.8 17.2 11.8 17.1H825v-72h-20l-.2 16.6-.3 16.6-11.3-16.6-11.3-16.6H765zm70.2-27.7.3 8.2 9.3.3 9.2.3V246h20v-54.9l9.3-.3 9.2-.3.3-8.2.3-8.3H835zm80.7-7c-10.5 3.8-15.7 10-16.6 19.4-1.3 14.4 7 21.4 27.9 23.8 3.1.3 6.2 1.2 6.8 2 1.9 2.3.8 6.8-2 8.3-3.6 1.9-14.8 1-20-1.6-4.3-2-4.3-2-10.6 3.6-6 5.3-6.2 5.7-4.7 7.4.9 1 4.1 3 7.2 4.5 5.3 2.6 6.4 2.8 19.1 2.8s13.8-.1 19.3-2.9c10.1-5 14.4-13.9 11.8-24.9-2.3-10.1-7.5-13.7-23.6-16.1-7-1-10.3-2-11.2-3.3-2-2.5-1.6-4 1.3-6.2 3.5-2.8 11.5-2.8 16.8-.1 3.9 2 3.9 2 7.5-1 2-1.5 4.9-4.1 6.4-5.7 2.8-3 2.8-3-1.3-5.8a35 35 0 0 0-9.2-4.2 61 61 0 0 0-25 0M719.4 191c-4.7 2-5.8 5.4-5.8 19s1 17 6 19.2c3.6 1.6 9.2.2 11.3-3s3-22.5 1.3-29c-1.6-6-7-8.5-12.8-6.2"/>
  <path fill="#fba48c" fill-rule="evenodd" d="M0 32.3V37h119v35H0v9h119v24.8h-6.4c-7.1 0-12 1.8-17.6 6.2-3.8 3-3.8 3-49.4 3H0v9h54v34H0v9h54v25h-5.4q-10 0-17.6 6c-3.8 3-3.8 3-17.4 3H0v4.5c0 4.5 0 4.5 6.9 4.5 3.7 0 9 .3 11.5.6 3.8.6 4.6 1 4.6 2.8 0 3.4 3.5 8.1 7.3 10 8.5 4 20.5 1 28.4-7L64 211h50.6c42.2 0 50.5-.2 50.5-1.4l-.6-4.5c-.7-3.1-.7-3.1-34.8-3.1-18.7 0-41.2-.3-49.8-.7l-15.8-.6V167h9c8.9 0 8.9 0 9.2 4 .4 5.4 2 5.5 3.6.3l1.4-4.3h39c39 0 39 0 38.4-3.1l-.6-4c0-.5-16.8-.9-37.6-.9H89l-1.5-3.7c-3-7.8-5-10.7-13.7-19.4a44 44 0 0 1-8.5-10.1c.3-1 3.8-1.4 11.6-1.6C88 124 88 124 88 127q0 3 3.3 6.5c7.9 8.5 26.6 5.5 34.4-5.5 2.8-4 2.8-4 21-4H165v-9h-36V81h9c9 0 9 0 9 4 0 5 1.8 5 3.5 0 1.1-3.4 1.3-3.5 7.6-4 6.4-.5 6.4-.5 6.7-4.7s.3-4.3-5.7-4.3c-5.8 0-6-.1-6.6-2.7a33 33 0 0 0-10.4-16.5c-3-2.8-7.3-7.1-9.5-9.7-3.8-4.6-3.8-4.6-1-5.2 1.6-.4 9.8-.7 18.3-.8 15.3-.1 15.3-.1 14.6-3.9l-.9-3.9-81.9-.9L0 27.7zm297.3-3.6c-17 .2-30.3.7-30.3 1.2s2.3 2.3 5 4c5 3.1 5 3.1 80 3.1h75v35l-46.2.2-46.3.3 6.5 4.2 6.5 4.3H427v25h-5.7c-7.8 0-12 1.3-17.9 5.5-4.7 3.4-5.2 3.5-13.6 3.5-8.8 0-8.8 0-8.8 4.5s0 4.5 7.5 4.5 7.5 0 7.5 3c0 4 5.1 9.7 9.8 11q13.7 3.8 25.4-8l6-6H471v33.8l-61.3.4c-61.3.3-61.3.3-68 3.7a23 23 0 0 0-6.7 4.3c0 .4 30.6.8 68 .8h68v24.7l-7.2.5c-7.7.5-13.8 2.9-17.2 6.7-2 2.1-2 2.1-84.4 2.1s-82.5 0-87.7 3c-10.2 5.9-11.7 5.6 36.8 6.3 24.3.4 63 .7 86 .7h41.6l1 3.8c2 7 7.1 10.2 16.3 10.2 8 0 15.2-3.3 20.4-9.3l3.5-4.2 57.2-.5 57.2-.5.3-4.2.3-4.3H481v-35h9c8.9 0 8.9 0 9.2 5.3l.3 5.2 2.4-5.2 2.3-5.3H595v-9h-45.5c-45 0-45.5 0-45.5-2 0-4.4-3.3-9.4-12.5-19a52 52 0 0 1-9.2-11.3q.3-1.2 11.5-1.5c11-.3 11.2-.2 11.2 2 0 3.7 3.6 8.6 8.2 10.9 8.6 4.4 22.7 0 29.3-8.9 3-4 3-4 27.8-4.1l24.7-.1v-9h-49V81h9.5c9.5 0 9.5 0 9.6 4.8v4.7l2.2-4.7c2.2-4.8 2.2-4.8 15-4.8H595v-9h-12.5c-9.3 0-12.5-.3-12.5-1.2 0-5.3-2.7-9.6-12.6-19.9-5.7-6-10.4-11.3-10.4-11.8q-.2-2 29.3-2L595 37v-9l-133.7.2zM438 38.3c0 2.1 3.3 6.2 11.7 14.3 7 6.9 8.3 8.7 9.8 13.7L461 72h75V37h-49c-38.5 0-49 .3-49 1.3M129.6 61.6a24 24 0 0 0-.6 6c0 4.4 0 4.4 7.5 4.4 4.1 0 7.5-.3 7.5-.8 0-1.8-3.6-5.6-7.8-8.3-5.3-3.4-5.8-3.4-6.6-1.3m308-.9c-.3.4-.6 3-.6 6 0 5.3 0 5.3 6 5.3 7.6 0 9.3-.6 8-3-1.8-3.3-12-9.6-13.4-8.3m109 0c-.3.3-.6 3-.6 6.1 0 5.5 0 5.5 7 5 3.9-.3 7.4-.8 7.7-1.2 1-.9-2.6-4.5-7.6-7.8-4.8-3-5.4-3.2-6.4-2.1M437 98v17h35.7c35.6 0 35.6 0 39-2.5a29 29 0 0 1 18-6.5h6.3V81h-75.6l-2.4 4.8-2.4 4.7-.6-4.5c-.5-4.5-.5-4.5-9.2-4.8L437 81zm220.7-10.2L642.5 123l-15.2 35.3c-.2.4 4.7.7 11 .7 11.4 0 11.4 0 13.4-5.2s2-5.3 14.5-5.6l12.5-.3 1.8 5.6 2 5.5h11.3c6.2 0 11.2-.4 11-.9l-15.3-36-15-35h-8.2a28 28 0 0 0-8.6.7m53.3 25.4c0 24.5.1 26.4 2 30.5 4.8 9.7 15.6 15.3 29.4 15.3 15 0 24.5-4.8 29.8-14.9 2.8-5.3 2.8-5.3 2.8-31.2V87h-21v22.8a215 215 0 0 1-1 26.4c-2.5 8.7-17 9.2-19.9.7-.7-2-1.1-12-1.1-26.5V87h-21zm79 9.9v36l20.8-.3c19.1-.3 21.1-.5 26-2.7a29 29 0 0 0 14.3-14.7c1.9-5.3 1.9-31.4 0-36.7-2.8-8-11-14.6-20.9-16.6a178 178 0 0 0-22.7-1.1H790zm76 0v36h21V87h-21zM919.3 89a30 30 0 0 0-15.8 12.8c-2.8 5.8-4 19.7-2.7 31s3.7 15.8 11.6 21c6.6 4.5 11.5 5.6 22.6 5 11-.4 17.3-3 23.2-9.5 5.4-6 6.3-9.7 6.3-26.2a52 52 0 0 0-1.8-19.2c-2.3-6-9-12-16.3-14.8a48 48 0 0 0-27-.1m9.1 15c-5 2-6 4.7-6.3 16.5-.5 13.7.7 19 4.8 21 5.6 3 12 1.5 14.5-3.3a74 74 0 0 0 0-30c-2-4.1-8.3-6-13-4.2M811 123.6v19.7l6.6-.6c7.5-.7 11-2.5 12.5-6.5.6-1.5.9-8.1.7-15-.3-12.1-.4-12.4-3.1-14.8-2.4-2-3.9-2.4-9.8-2.4H811zm-145.8-3.9-3 8-2.2 5.3h13l-2.8-7.5a63 63 0 0 0-3.3-8c-.3-.3-1 .7-1.6 2.2M64 152v6h7.5c4.1 0 7.5-.4 7.5-.8 0-2.1-11.7-11.2-14.5-11.2-.3 0-.5 2.7-.5 6m417-.1c0 5.8 0 5.8 7.8 6.4 4.2.2 7.8.3 8 .2.8-.8-7.6-8.8-11-10.6-2-1-4-1.9-4.3-1.9s-.5 2.6-.5 5.9"/>
</svg>